<svg width="306" height="176" viewBox="0 0 306 176" fill="none" xmlns="http://www.w3.org/2000/svg">
<g clip-path="url(#clip0)">
<path d="M66.3017 156.227C75.0906 156.227 82.2155 149.095 82.2155 140.297C82.2155 131.499 75.0906 124.367 66.3017 124.367C57.5128 124.367 50.388 131.499 50.388 140.297C50.388 149.095 57.5128 156.227 66.3017 156.227Z" fill="#F2F2F2"/>
<path d="M68.8893 153.896C77.6783 153.896 84.8031 146.764 84.8031 137.966C84.8031 129.168 77.6783 122.036 68.8893 122.036C60.1004 122.036 52.9756 129.168 52.9756 137.966C52.9756 146.764 60.1004 153.896 68.8893 153.896Z" fill="#266FDC"/>
<path d="M278.601 120.34H81.7054V120.878H278.601V120.34Z" fill="#3F3D56"/>
<path d="M183.678 5.01536H113.792V3.57349H82.1032V5.01536H11.9293C11.3085 5.01536 10.6938 5.13776 10.1202 5.37556C9.5467 5.61337 9.02557 5.96193 8.58661 6.40135C8.14764 6.84076 7.79943 7.36242 7.56187 7.93654C7.3243 8.51066 7.20203 9.126 7.20203 9.74742V105.54C7.20202 106.795 7.70007 107.999 8.5866 108.886C9.47314 109.774 10.6755 110.272 11.9293 110.272H183.678C184.932 110.272 186.134 109.774 187.021 108.886C187.907 107.999 188.405 106.795 188.405 105.54V9.74742C188.405 9.126 188.283 8.51066 188.045 7.93654C187.808 7.36242 187.46 6.84076 187.021 6.40135C186.582 5.96193 186.061 5.61337 185.487 5.37556C184.914 5.13776 184.299 5.01536 183.678 5.01536V5.01536Z" fill="#3F3D56"/>
<path d="M182.067 13.3782H13.5398V108.542H182.067V13.3782Z" fill="#266FDC"/>
<path d="M97.6596 10.7829C98.6142 10.7829 99.3881 10.0082 99.3881 9.05263C99.3881 8.09705 98.6142 7.32239 97.6596 7.32239C96.705 7.32239 95.9311 8.09705 95.9311 9.05263C95.9311 10.0082 96.705 10.7829 97.6596 10.7829Z" fill="#266FDC"/>
<path opacity="0.1" d="M133.871 108.542H13.5399V13.3783L133.871 108.542Z" fill="black"/>
<path d="M39.9093 101.421C48.856 101.421 56.1087 94.1607 56.1087 85.2049C56.1087 76.2491 48.856 68.989 39.9093 68.989C30.9626 68.989 23.7099 76.2491 23.7099 85.2049C23.7099 94.1607 30.9626 101.421 39.9093 101.421Z" fill="#F2F2F2"/>
<path d="M152.724 64.7007H136.982V67.9935H152.724V64.7007Z" fill="#3F3D56"/>
<path d="M171.756 39.064H117.95V40.4752H171.756V39.064Z" fill="#3F3D56"/>
<path d="M171.756 43.5328H117.95V44.944H171.756V43.5328Z" fill="#3F3D56"/>
<path d="M171.756 48.0016H117.95V49.4128H171.756V48.0016Z" fill="#3F3D56"/>
<path d="M171.756 52.4703H117.95V53.8815H171.756V52.4703Z" fill="#3F3D56"/>
<path d="M171.756 56.9391H117.95V58.3503H171.756V56.9391Z" fill="#3F3D56"/>
<path d="M171.756 15.3088H165.177V21.8944H171.756V15.3088Z" fill="#F2F2F2"/>
<path d="M174.81 24.9521H166.822V16.9553H174.81V24.9521ZM167.169 24.6044H174.463V17.303H167.169V24.6044Z" fill="#3F3D56"/>
<path d="M193.137 106.812H176.69V105.625C176.69 105.595 176.684 105.564 176.672 105.535C176.66 105.507 176.643 105.481 176.621 105.459C176.599 105.437 176.573 105.42 176.545 105.408C176.516 105.396 176.486 105.39 176.455 105.39H170.816C170.785 105.39 170.754 105.396 170.726 105.408C170.697 105.42 170.672 105.437 170.65 105.459C170.628 105.481 170.611 105.507 170.599 105.535C170.587 105.564 170.581 105.595 170.581 105.625V106.812H167.057V105.625C167.057 105.595 167.05 105.564 167.039 105.535C167.027 105.507 167.01 105.481 166.988 105.459C166.966 105.437 166.94 105.42 166.912 105.408C166.883 105.396 166.852 105.39 166.822 105.39H161.183C161.152 105.39 161.121 105.396 161.093 105.408C161.064 105.42 161.038 105.437 161.016 105.459C160.995 105.481 160.977 105.507 160.965 105.535C160.954 105.564 160.948 105.595 160.948 105.625V106.812H157.423V105.625C157.423 105.595 157.417 105.564 157.405 105.535C157.394 105.507 157.376 105.481 157.354 105.459C157.333 105.437 157.307 105.42 157.278 105.408C157.25 105.396 157.219 105.39 157.188 105.39H151.549C151.518 105.39 151.488 105.396 151.459 105.408C151.431 105.42 151.405 105.437 151.383 105.459C151.361 105.481 151.344 105.507 151.332 105.535C151.32 105.564 151.314 105.595 151.314 105.625V106.812H147.79V105.625C147.79 105.595 147.784 105.564 147.772 105.535C147.76 105.507 147.743 105.481 147.721 105.459C147.699 105.437 147.673 105.42 147.645 105.408C147.616 105.396 147.586 105.39 147.555 105.39H141.916C141.885 105.39 141.854 105.396 141.826 105.408C141.797 105.42 141.772 105.437 141.75 105.459C141.728 105.481 141.711 105.507 141.699 105.535C141.687 105.564 141.681 105.595 141.681 105.625V106.812H138.156V105.625C138.156 105.595 138.15 105.564 138.139 105.535C138.127 105.507 138.109 105.481 138.088 105.459C138.066 105.437 138.04 105.42 138.011 105.408C137.983 105.396 137.952 105.39 137.922 105.39H132.282C132.252 105.39 132.221 105.396 132.193 105.408C132.164 105.42 132.138 105.437 132.116 105.459C132.095 105.481 132.077 105.507 132.065 105.535C132.054 105.564 132.048 105.595 132.048 105.625V106.812H128.523V105.625C128.523 105.595 128.517 105.564 128.505 105.535C128.493 105.507 128.476 105.481 128.454 105.459C128.432 105.437 128.407 105.42 128.378 105.408C128.35 105.396 128.319 105.39 128.288 105.39H122.649C122.618 105.39 122.588 105.396 122.559 105.408C122.531 105.42 122.505 105.437 122.483 105.459C122.461 105.481 122.444 105.507 122.432 105.535C122.42 105.564 122.414 105.595 122.414 105.625V106.812H118.89V105.625C118.89 105.595 118.884 105.564 118.872 105.535C118.86 105.507 118.843 105.481 118.821 105.459C118.799 105.437 118.773 105.42 118.745 105.408C118.716 105.396 118.686 105.39 118.655 105.39H74.4823C74.4515 105.39 74.4209 105.396 74.3924 105.408C74.3639 105.42 74.338 105.437 74.3162 105.459C74.2944 105.481 74.277 105.507 74.2652 105.535C74.2534 105.564 74.2474 105.595 74.2474 105.625V106.812H70.723V105.625C70.723 105.595 70.7169 105.564 70.7051 105.535C70.6933 105.507 70.676 105.481 70.6541 105.459C70.6323 105.437 70.6064 105.42 70.5779 105.408C70.5494 105.396 70.5188 105.39 70.488 105.39H64.849C64.8181 105.39 64.7875 105.396 64.759 105.408C64.7305 105.42 64.7046 105.437 64.6828 105.459C64.661 105.481 64.6437 105.507 64.6319 105.535C64.6201 105.564 64.614 105.595 64.614 105.625V106.812H61.0896V105.625C61.0896 105.595 61.0835 105.564 61.0717 105.535C61.0599 105.507 61.0426 105.481 61.0208 105.459C60.999 105.437 60.9731 105.42 60.9445 105.408C60.916 105.396 60.8855 105.39 60.8546 105.39H55.2156C55.1847 105.39 55.1542 105.396 55.1257 105.408C55.0972 105.42 55.0713 105.437 55.0494 105.459C55.0276 105.481 55.0103 105.507 54.9985 105.535C54.9867 105.564 54.9806 105.595 54.9806 105.625V106.812H51.4562V105.625C51.4562 105.595 51.4502 105.564 51.4383 105.535C51.4265 105.507 51.4092 105.481 51.3874 105.459C51.3656 105.437 51.3397 105.42 51.3112 105.408C51.2827 105.396 51.2521 105.39 51.2213 105.39H45.5822C45.5514 105.39 45.5208 105.396 45.4923 105.408C45.4638 105.42 45.4379 105.437 45.4161 105.459C45.3943 105.481 45.377 105.507 45.3652 105.535C45.3534 105.564 45.3473 105.595 45.3473 105.625V106.812H41.8229V105.625C41.8229 105.595 41.8168 105.564 41.805 105.535C41.7932 105.507 41.7759 105.481 41.7541 105.459C41.7323 105.437 41.7063 105.42 41.6778 105.408C41.6493 105.396 41.6188 105.39 41.5879 105.39H35.9489C35.918 105.39 35.8875 105.396 35.859 105.408C35.8305 105.42 35.8045 105.437 35.7827 105.459C35.7609 105.481 35.7436 105.507 35.7318 105.535C35.72 105.564 35.7139 105.595 35.7139 105.625V106.812H32.1895V105.625C32.1895 105.595 32.1834 105.564 32.1716 105.535C32.1598 105.507 32.1425 105.481 32.1207 105.459C32.0989 105.437 32.073 105.42 32.0445 105.408C32.016 105.396 31.9854 105.39 31.9546 105.39H26.3155C26.2847 105.39 26.2541 105.396 26.2256 105.408C26.1971 105.42 26.1712 105.437 26.1494 105.459C26.1276 105.481 26.1102 105.507 26.0984 105.535C26.0866 105.564 26.0806 105.595 26.0806 105.625V106.812H22.5562V105.625C22.5562 105.595 22.5501 105.564 22.5383 105.535C22.5265 105.507 22.5092 105.481 22.4873 105.459C22.4655 105.437 22.4396 105.42 22.4111 105.408C22.3826 105.396 22.3521 105.39 22.3212 105.39H16.6822C16.6513 105.39 16.6207 105.396 16.5922 105.408C16.5637 105.42 16.5378 105.437 16.516 105.459C16.4942 105.481 16.4769 105.507 16.4651 105.535C16.4533 105.564 16.4472 105.595 16.4472 105.625V106.812H5.63904C4.14347 106.812 2.70916 107.406 1.65164 108.465C0.594113 109.524 1.42483e-06 110.959 0 112.456V115.009C4.27448e-06 116.506 0.594118 117.942 1.65164 119C2.70917 120.059 4.14348 120.654 5.63904 120.654H193.137C194.633 120.654 196.067 120.059 197.125 119C198.182 117.942 198.776 116.506 198.776 115.009V112.456C198.776 110.959 198.182 109.524 197.125 108.465C196.067 107.406 194.633 106.812 193.137 106.812Z" fill="#3F3D56"/>
<path d="M43.8305 95.3331C39.7929 95.3331 35.8459 94.1345 32.4887 91.889C29.1315 89.6435 26.5148 86.4519 24.9697 82.7178C23.4245 78.9837 23.0202 74.8748 23.808 70.9106C24.5957 66.9465 26.54 63.3052 29.3951 60.4473C32.2501 57.5893 35.8877 55.643 39.8478 54.8545C43.8079 54.066 47.9126 54.4706 51.643 56.0174C55.3733 57.5641 58.5617 60.1834 60.8049 63.544C63.0481 66.9046 64.2454 70.8556 64.2454 74.8974C64.2393 80.3154 62.0865 85.5097 58.2593 89.3408C54.4321 93.1719 49.243 95.3269 43.8305 95.3331ZM43.8305 54.9996C39.8991 54.9996 36.056 56.1666 32.7871 58.353C29.5183 60.5394 26.9705 63.647 25.466 67.2829C23.9615 70.9187 23.5679 74.9195 24.3349 78.7793C25.1018 82.6391 26.995 86.1846 29.7749 88.9673C32.5549 91.7501 36.0967 93.6452 39.9526 94.4129C43.8085 95.1807 47.8052 94.7867 51.4374 93.2806C55.0695 91.7746 58.174 89.2243 60.3582 85.9521C62.5424 82.6799 63.7082 78.8329 63.7082 74.8974C63.7022 69.622 61.606 64.5644 57.8796 60.8341C54.1531 57.1038 49.1006 55.0055 43.8305 54.9996V54.9996Z" fill="#3F3D56"/>
<path d="M225.952 8.75061H157.455V9.28839H225.952V8.75061Z" fill="#3F3D56"/>
<path d="M306 150.724H109.104V151.262H306V150.724Z" fill="#3F3D56"/>
<path d="M120.252 175.462H51.7548V176H120.252V175.462Z" fill="#3F3D56"/>
<path d="M134.04 147.889H126.518V155.418H134.04V147.889Z" fill="#266FDC"/>
<path d="M138.606 151.116H129.473V141.974H138.606V151.116ZM129.87 150.719H138.209V142.371H129.87V150.719Z" fill="#3F3D56"/>
<path d="M221.34 5.91553H213.819V13.4444H221.34V5.91553Z" fill="#266FDC"/>
<path d="M225.906 9.14225H216.773V0H225.906V9.14225ZM217.171 8.74476H225.509V0.39749H217.171V8.74476Z" fill="#3F3D56"/>
<path d="M297.09 147.889H289.568V155.418H297.09V147.889Z" fill="#266FDC"/>
<path d="M301.656 151.116H292.523V141.974H301.656V151.116ZM292.92 150.719H301.259V142.371H292.92V150.719Z" fill="#3F3D56"/>
<path d="M283.974 62.3712H283.335V44.85C283.335 43.5182 283.073 42.1996 282.564 40.9692C282.054 39.7389 281.308 38.6209 280.367 37.6793C279.427 36.7376 278.31 35.9906 277.081 35.481C275.852 34.9714 274.534 34.7091 273.204 34.7091H236.121C234.79 34.7091 233.473 34.9714 232.244 35.481C231.015 35.9906 229.898 36.7376 228.957 37.6793C228.017 38.6209 227.27 39.7389 226.761 40.9692C226.252 42.1996 225.99 43.5182 225.99 44.85V140.973C225.99 142.305 226.252 143.623 226.761 144.854C227.27 146.084 228.017 147.202 228.957 148.144C229.898 149.085 231.015 149.832 232.244 150.342C233.473 150.852 234.79 151.114 236.121 151.114H273.204C274.534 151.114 275.852 150.852 277.081 150.342C278.31 149.832 279.427 149.085 280.368 148.144C281.308 147.202 282.054 146.084 282.564 144.854C283.073 143.623 283.335 142.305 283.335 140.973V74.8432H283.974V62.3712Z" fill="#3F3D56"/>
<path d="M281.177 45.446V141.429C281.178 143.437 280.381 145.364 278.962 146.784C277.544 148.205 275.62 149.003 273.613 149.004H236.351C234.344 149.003 232.42 148.205 231.001 146.784C229.583 145.364 228.786 143.437 228.786 141.429V45.446C228.787 43.4378 229.584 41.512 231.002 40.092C232.421 38.6721 234.345 37.8742 236.351 37.874H240.871C240.649 38.4203 240.564 39.013 240.624 39.5998C240.685 40.1867 240.888 40.7497 241.217 41.2393C241.546 41.7288 241.99 42.13 242.51 42.4073C243.03 42.6847 243.61 42.8297 244.2 42.8297H265.444C266.034 42.8297 266.614 42.6847 267.134 42.4073C267.654 42.13 268.098 41.7289 268.427 41.2393C268.756 40.7497 268.96 40.1867 269.02 39.5998C269.08 39.013 268.995 38.4203 268.773 37.874H273.613C275.619 37.8742 277.543 38.6721 278.962 40.092C280.38 41.512 281.177 43.4378 281.177 45.446V45.446Z" fill="#266FDC"/>
<path d="M260.532 101.161H249.432V104.454H260.532V101.161Z" fill="#3F3D56"/>
<path d="M273.952 75.5244H236.012V76.9356H273.952V75.5244Z" fill="#3F3D56"/>
<path d="M273.952 79.9932H236.012V81.4044H273.952V79.9932Z" fill="#3F3D56"/>
<path d="M273.952 84.4619H236.012V85.8731H273.952V84.4619Z" fill="#3F3D56"/>
<path d="M273.952 88.9307H236.012V90.3419H273.952V88.9307Z" fill="#3F3D56"/>
<path d="M273.952 93.3995H236.012V94.8107H273.952V93.3995Z" fill="#3F3D56"/>
<path d="M256.307 56.7838H249.728V63.3694H256.307V56.7838Z" fill="#F2F2F2"/>
<path d="M252.247 58.4307V66.4275H260.235V58.4307H252.247ZM259.889 66.0806H252.593V58.7775H259.889V66.0806Z" fill="#3F3D56"/>
<path opacity="0.1" d="M281.177 131.179V141.429C281.178 143.437 280.381 145.364 278.962 146.784C277.544 148.205 275.62 149.003 273.613 149.003H236.351C234.344 149.003 232.42 148.205 231.001 146.784C229.583 145.364 228.786 143.437 228.786 141.429V89.7455L260.18 114.572L260.717 114.997L266.557 119.614L267.102 120.047L281.177 131.179Z" fill="black"/>
<path d="M251.758 145.893C258.266 145.893 263.542 140.612 263.542 134.097C263.542 127.583 258.266 122.302 251.758 122.302C245.251 122.302 239.975 127.583 239.975 134.097C239.975 140.612 245.251 145.893 251.758 145.893Z" fill="#F2F2F2"/>
<path d="M86.0033 176C81.3812 176 76.8629 174.628 73.0198 172.058C69.1767 169.487 66.1813 165.834 64.4126 161.559C62.6438 157.284 62.181 152.581 63.0827 148.043C63.9844 143.505 66.2102 139.337 69.4785 136.065C72.7468 132.793 76.9108 130.565 81.4441 129.663C85.9774 128.76 90.6762 129.223 94.9465 130.994C99.2167 132.765 102.867 135.763 105.434 139.61C108.002 143.457 109.373 147.98 109.373 152.607C109.366 158.809 106.902 164.755 102.52 169.141C98.1392 173.526 92.1992 175.993 86.0033 176ZM86.0033 129.751C81.4875 129.751 77.0731 131.091 73.3183 133.603C69.5635 136.114 66.637 139.684 64.9089 143.86C63.1808 148.037 62.7286 152.632 63.6096 157.066C64.4906 161.499 66.6652 165.572 69.8583 168.768C73.0515 171.964 77.1199 174.141 81.5489 175.023C85.978 175.905 90.5688 175.452 94.7409 173.723C98.9129 171.993 102.479 169.063 104.988 165.305C107.497 161.546 108.836 157.127 108.836 152.607C108.829 146.547 106.421 140.738 102.141 136.453C97.8603 132.168 92.0567 129.758 86.0033 129.751V129.751Z" fill="#3F3D56"/>
<path d="M255.232 143.195C252.31 143.195 249.453 142.328 247.024 140.703C244.594 139.078 242.701 136.768 241.582 134.066C240.464 131.364 240.172 128.39 240.742 125.521C241.312 122.653 242.719 120.017 244.785 117.949C246.851 115.881 249.483 114.472 252.349 113.902C255.215 113.331 258.186 113.624 260.885 114.743C263.585 115.863 265.892 117.758 267.516 120.19C269.139 122.622 270.005 125.482 270.005 128.407C270.001 132.327 268.443 136.086 265.673 138.859C262.904 141.631 259.149 143.191 255.232 143.195V143.195ZM255.232 114.155C252.416 114.155 249.663 114.991 247.322 116.557C244.981 118.123 243.156 120.349 242.079 122.953C241.001 125.557 240.719 128.422 241.268 131.187C241.818 133.951 243.174 136.491 245.165 138.484C247.156 140.477 249.693 141.834 252.454 142.384C255.216 142.934 258.078 142.652 260.68 141.573C263.281 140.494 265.505 138.668 267.069 136.324C268.633 133.98 269.468 131.225 269.468 128.407C269.464 124.628 267.963 121.006 265.294 118.334C262.625 115.662 259.006 114.16 255.232 114.155Z" fill="#3F3D56"/>
</g>
<defs>
<clipPath id="clip0">
<rect width="306" height="176" fill="white"/>
</clipPath>
</defs>
</svg>
