<svg width="119" height="40" viewBox="0 0 119 40" fill="none" xmlns="http://www.w3.org/2000/svg">
<path d="M0 13.3157C0 7.67774 6.3245 4.35297 10.9687 7.54944L27.0446 18.614C31.6606 21.7911 30.8582 28.834 25.6458 30.8914L11.2563 36.5709C7.07408 38.2216 2.44239 35.5577 1.76601 31.1127L0.0796589 20.0303C0.0266286 19.6818 0 19.3298 0 18.9773V13.3157Z" fill="#266FDC"/>
<rect x="79.5872" y="13.5068" width="38" height="2" rx="1" fill="#266FDC"/>
<path d="M13.1472 21.795C13.0672 22.283 12.8792 22.731 12.5832 23.139C12.2872 23.539 11.8832 23.863 11.3712 24.111C10.8672 24.359 10.2712 24.483 9.58316 24.483H8.31116L7.77116 27.507H5.71916L7.20716 19.083H10.5312C11.4112 19.083 12.0752 19.279 12.5232 19.671C12.9712 20.055 13.1952 20.579 13.1952 21.243C13.1952 21.443 13.1792 21.627 13.1472 21.795ZM9.70316 22.875C10.4712 22.875 10.9232 22.515 11.0592 21.795C11.0752 21.667 11.0832 21.575 11.0832 21.519C11.0832 21.263 10.9992 21.067 10.8312 20.931C10.6712 20.787 10.4232 20.715 10.0872 20.715H8.97116L8.59916 22.875H9.70316ZM21.9914 19.083L20.5034 27.507H18.4514L19.0634 24.015H15.8714L15.2594 27.507H13.2074L14.6954 19.083H16.7474L16.1594 22.395H19.3514L19.9394 19.083H21.9914ZM29.6168 27.999L29.2808 29.967H21.8408L22.1768 27.999H29.6168Z" fill="#F4F6F8"/>
<path d="M38.7761 21.795C38.6961 22.283 38.5081 22.731 38.2121 23.139C37.9161 23.539 37.5121 23.863 37.0001 24.111C36.4961 24.359 35.9001 24.483 35.2121 24.483H33.9401L33.4001 27.507H31.3481L32.8361 19.083H36.1601C37.0401 19.083 37.7041 19.279 38.1521 19.671C38.6001 20.055 38.8241 20.579 38.8241 21.243C38.8241 21.443 38.8081 21.627 38.7761 21.795ZM35.3321 22.875C36.1001 22.875 36.5521 22.515 36.6881 21.795C36.7041 21.667 36.7121 21.575 36.7121 21.519C36.7121 21.263 36.6281 21.067 36.4601 20.931C36.3001 20.787 36.0521 20.715 35.7161 20.715H34.6001L34.2281 22.875H35.3321ZM43.7683 19.083C44.6403 19.083 45.3043 19.283 45.7603 19.683C46.2163 20.075 46.4443 20.587 46.4443 21.219C46.4443 21.403 46.4283 21.575 46.3963 21.735C46.3003 22.295 46.0563 22.795 45.6643 23.235C45.2723 23.675 44.7483 23.987 44.0923 24.171L45.4483 27.507H43.1323L41.9443 24.327H41.4523L40.8883 27.507H38.8363L40.3243 19.083H43.7683ZM44.2963 21.819C44.3123 21.691 44.3203 21.607 44.3203 21.567C44.3203 21.311 44.2363 21.115 44.0683 20.979C43.9083 20.835 43.6683 20.763 43.3483 20.763H42.0763L41.7043 22.875H42.9763C43.3523 22.875 43.6483 22.783 43.8643 22.599C44.0883 22.415 44.2323 22.155 44.2963 21.819ZM50.6725 27.591C49.9605 27.591 49.3325 27.443 48.7885 27.147C48.2525 26.851 47.8365 26.435 47.5405 25.899C47.2445 25.363 47.0965 24.747 47.0965 24.051C47.0965 23.067 47.3085 22.191 47.7325 21.423C48.1565 20.647 48.7445 20.043 49.4965 19.611C50.2565 19.179 51.1165 18.963 52.0765 18.963C52.7965 18.963 53.4285 19.111 53.9725 19.407C54.5165 19.695 54.9365 20.107 55.2325 20.643C55.5285 21.171 55.6765 21.779 55.6765 22.467C55.6765 23.451 55.4645 24.335 55.0405 25.119C54.6165 25.895 54.0245 26.503 53.2645 26.943C52.5045 27.375 51.6405 27.591 50.6725 27.591ZM50.9845 25.695C51.5125 25.695 51.9765 25.559 52.3765 25.287C52.7765 25.015 53.0845 24.651 53.3005 24.195C53.5245 23.731 53.6365 23.231 53.6365 22.695C53.6365 22.119 53.4765 21.667 53.1565 21.339C52.8365 21.011 52.3885 20.847 51.8125 20.847C51.2845 20.847 50.8165 20.983 50.4085 21.255C50.0085 21.527 49.6965 21.891 49.4725 22.347C49.2565 22.795 49.1485 23.291 49.1485 23.835C49.1485 24.411 49.3085 24.867 49.6285 25.203C49.9485 25.531 50.4005 25.695 50.9845 25.695ZM56.5061 23.283C56.6501 22.451 56.9581 21.711 57.4301 21.063C57.9101 20.407 58.5061 19.899 59.2181 19.539C59.9301 19.171 60.7021 18.987 61.5341 18.987C62.5421 18.987 63.3501 19.231 63.9581 19.719C64.5741 20.207 64.9101 20.883 64.9661 21.747H62.7101C62.6061 21.467 62.4221 21.255 62.1581 21.111C61.9021 20.959 61.5861 20.883 61.2101 20.883C60.5461 20.883 59.9741 21.103 59.4941 21.543C59.0221 21.975 58.7221 22.555 58.5941 23.283C58.5541 23.523 58.5341 23.731 58.5341 23.907C58.5341 24.499 58.7061 24.955 59.0501 25.275C59.3941 25.595 59.8821 25.755 60.5141 25.755C61.0261 25.755 61.4781 25.627 61.8701 25.371C62.2621 25.107 62.5781 24.735 62.8181 24.255H60.2261L60.4781 22.755H64.9421L64.6061 24.663C64.3661 25.175 64.0221 25.651 63.5741 26.091C63.1341 26.531 62.6101 26.887 62.0021 27.159C61.3941 27.431 60.7381 27.567 60.0341 27.567C59.3061 27.567 58.6661 27.427 58.1141 27.147C57.5701 26.859 57.1501 26.459 56.8541 25.947C56.5661 25.435 56.4221 24.839 56.4221 24.159C56.4221 23.927 56.4501 23.635 56.5061 23.283ZM70.1707 19.083C71.0427 19.083 71.7067 19.283 72.1627 19.683C72.6187 20.075 72.8467 20.587 72.8467 21.219C72.8467 21.403 72.8307 21.575 72.7987 21.735C72.7027 22.295 72.4587 22.795 72.0667 23.235C71.6747 23.675 71.1507 23.987 70.4947 24.171L71.8507 27.507H69.5347L68.3467 24.327H67.8547L67.2907 27.507H65.2387L66.7267 19.083H70.1707ZM70.6987 21.819C70.7147 21.691 70.7227 21.607 70.7227 21.567C70.7227 21.311 70.6387 21.115 70.4707 20.979C70.3107 20.835 70.0707 20.763 69.7507 20.763H68.4787L68.1067 22.875H69.3787C69.7547 22.875 70.0507 22.783 70.2667 22.599C70.4907 22.415 70.6347 22.155 70.6987 21.819ZM78.5748 26.019H75.4308L74.6628 27.507H72.5148L77.0508 19.083H79.4268L80.9868 27.507H78.8148L78.5748 26.019ZM78.3348 24.459L77.8428 21.339L76.2348 24.459H78.3348ZM92.9425 19.083L91.4545 27.507H89.4025L90.3025 22.455L87.5185 27.507H85.8625L84.8545 22.431L83.9665 27.507H81.9145L83.4025 19.083H85.8265L87.1705 24.915L90.5305 19.083H92.9425ZM103.958 19.083L102.47 27.507H100.418L101.318 22.455L98.5341 27.507H96.8781L95.8701 22.431L94.9821 27.507H92.9301L94.4181 19.083H96.8421L98.1861 24.915L101.546 19.083H103.958ZM107.198 20.703L106.898 22.455H109.646L109.37 24.003H106.622L106.286 25.887H109.394L109.106 27.507H103.946L105.434 19.083H110.594L110.306 20.703H107.198ZM115.37 19.083C116.242 19.083 116.906 19.283 117.362 19.683C117.818 20.075 118.046 20.587 118.046 21.219C118.046 21.403 118.03 21.575 117.998 21.735C117.902 22.295 117.658 22.795 117.266 23.235C116.874 23.675 116.35 23.987 115.694 24.171L117.05 27.507H114.734L113.546 24.327H113.054L112.49 27.507H110.438L111.926 19.083H115.37ZM115.898 21.819C115.914 21.691 115.922 21.607 115.922 21.567C115.922 21.311 115.838 21.115 115.67 20.979C115.51 20.835 115.27 20.763 114.95 20.763H113.678L113.306 22.875H114.578C114.954 22.875 115.25 22.783 115.466 22.599C115.69 22.415 115.834 22.155 115.898 21.819Z" fill="#292829"/>
</svg>
