<svg width="167" height="153" viewBox="0 0 167 153" fill="none" xmlns="http://www.w3.org/2000/svg">
<rect width="166.211" height="152.065" rx="20" fill="#266FDC"/>
<g clip-path="url(#clip0)">
<path d="M37.4336 118.582C36.3859 122.094 38.012 125.685 38.012 125.685C38.012 125.685 41.3369 123.581 42.3847 120.069C43.4325 116.557 41.8063 112.966 41.8063 112.966C41.8063 112.966 38.4814 115.069 37.4336 118.582Z" fill="#F2F2F2"/>
<path d="M39.0245 118.677C39.9064 122.234 38.1136 125.744 38.1136 125.744C38.1136 125.744 34.891 123.486 34.0092 119.928C33.1273 116.371 34.9201 112.861 34.9201 112.861C34.9201 112.861 38.1427 115.119 39.0245 118.677Z" fill="#F2F2F2"/>
<path d="M91.4302 122.209L92.0971 120.488L85.7976 117.087L84.8134 119.628L91.4302 122.209Z" fill="#FFB8B8"/>
<path d="M95.0036 117.719C94.7208 117.608 94.4192 117.555 94.1159 117.561C93.8126 117.568 93.5135 117.634 93.2358 117.757C92.9582 117.88 92.7073 118.056 92.4976 118.276C92.2879 118.496 92.1234 118.755 92.0136 119.039L91.5637 120.2L90.8701 121.991L90.7005 122.43L92.9233 123.298L95.0734 117.746L95.0036 117.719Z" fill="#2F2E41"/>
<path d="M90.8703 118.896L90.5802 119.668L89.8563 121.595L89.839 121.643C87.9946 121.881 85.9728 121.415 84.1027 120.69C83.3544 120.401 82.6216 120.073 81.9071 119.707C80.8495 119.171 79.9026 118.605 79.1472 118.121C78.0098 117.389 77.3065 116.839 77.3065 116.839C77.3065 116.839 77.1208 117.007 76.7845 117.296C76.3339 117.683 75.6139 118.287 74.7018 118.998C74.3539 119.271 73.9803 119.557 73.5811 119.855C70.6384 122.046 66.8619 116.201 66.8619 116.201C66.8619 116.201 67.924 115.523 68.2015 115.391C69.095 114.967 71.194 113.966 73.0048 113.076C73.9378 112.617 74.7932 112.187 75.3675 111.881C77.4011 110.795 79.9291 112.851 79.9291 112.851L90.8703 118.896Z" fill="#2F2E41"/>
<path opacity="0.14" d="M90.8703 118.896L90.5802 119.668L89.8563 121.595L89.839 121.643C87.9946 121.881 85.9728 121.415 84.1027 120.69C83.3544 120.401 82.6216 120.073 81.9071 119.707C80.8495 119.171 79.9026 118.605 79.1472 118.121C78.0098 117.389 77.3065 116.839 77.3065 116.839C77.3065 116.839 77.1208 117.007 76.7845 117.296C76.3339 117.683 75.6139 118.287 74.7018 118.998C74.3539 119.271 73.9803 119.557 73.5811 119.855C70.6384 122.046 66.8619 116.201 66.8619 116.201C66.8619 116.201 67.924 115.523 68.2015 115.391C69.095 114.967 71.194 113.966 73.0048 113.076C73.9378 112.617 74.7932 112.187 75.3675 111.881C77.4011 110.795 79.9291 112.851 79.9291 112.851L90.8703 118.896Z" fill="black"/>
<path d="M53.6039 77.9183C67.8911 77.9183 79.4731 66.296 79.4731 51.9592C79.4731 37.6223 67.8911 26 53.6039 26C39.3167 26 27.7346 37.6223 27.7346 51.9592C27.7346 66.296 39.3167 77.9183 53.6039 77.9183Z" fill="#F2F2F2"/>
<path opacity="0.2" d="M34.5028 34.6205C32.0898 40.2846 31.7625 46.6252 33.5793 52.5091C35.3961 58.3931 39.2388 63.4372 44.4205 66.7399C49.6022 70.0426 55.7855 71.3887 61.8653 70.5378C67.945 69.6869 73.5252 66.6943 77.6087 62.0949C76.1346 65.5554 73.9284 68.653 71.1429 71.173C68.3575 73.693 65.0593 75.5751 61.477 76.6891C57.8947 77.803 54.1138 78.1221 50.3964 77.6242C46.679 77.1263 43.114 75.8233 39.9482 73.8055C36.7824 71.7877 34.0917 69.1034 32.0624 65.9386C30.0331 62.7737 28.7137 59.2039 28.1958 55.4766C27.6778 51.7492 27.9736 47.9534 29.0626 44.3522C30.1517 40.751 32.0079 37.4304 34.5028 34.6205Z" fill="black"/>
<path d="M53.6749 51.959H53.7461L55.0253 125.557H52.3246L53.6749 51.959Z" fill="#3F3D56"/>
<path d="M49.6927 85.3377L49.0967 86.4736L53.373 88.7328L53.969 87.5969L49.6927 85.3377Z" fill="#3F3D56"/>
<path d="M140.893 125.851H26.1932C26.1534 125.851 26.1152 125.835 26.0871 125.806C26.0589 125.778 26.0431 125.74 26.0431 125.7C26.0431 125.66 26.0589 125.622 26.0871 125.593C26.1152 125.565 26.1534 125.549 26.1932 125.549H140.893C140.933 125.549 140.971 125.565 140.999 125.593C141.027 125.622 141.043 125.66 141.043 125.7C141.043 125.74 141.027 125.778 140.999 125.806C140.971 125.835 140.933 125.851 140.893 125.851Z" fill="#3F3D56"/>
<path d="M61.4358 102.693H52.7282C52.5491 102.693 52.3774 102.622 52.2507 102.495C52.1241 102.368 52.0528 102.195 52.0526 102.016V98.2492C52.0526 96.9107 52.5825 95.6271 53.5257 94.6806C54.4689 93.7341 55.7481 93.2024 57.082 93.2024C58.4159 93.2024 59.6951 93.7341 60.6383 94.6806C61.5815 95.6271 62.1114 96.9107 62.1114 98.2492V102.016C62.1112 102.195 62.0399 102.368 61.9133 102.495C61.7866 102.622 61.6149 102.693 61.4358 102.693Z" fill="#2F2E41"/>
<path d="M69.7166 107.424C69.5139 107.46 69.3215 107.54 69.1529 107.658C68.9843 107.777 68.8436 107.931 68.7407 108.11C68.6379 108.289 68.5754 108.488 68.5576 108.694C68.5398 108.899 68.5672 109.107 68.6379 109.301L66.2701 111.486L67.2426 113.254L70.5431 110.12C70.86 109.98 71.1144 109.727 71.2582 109.411C71.402 109.095 71.4252 108.736 71.3233 108.404C71.2214 108.072 71.0016 107.788 70.7055 107.608C70.4094 107.427 70.0575 107.362 69.7166 107.424Z" fill="#FFB8B8"/>
<path d="M62.5921 117.36C62.4851 117.36 62.378 117.356 62.2707 117.346C61.632 117.293 61.0173 117.077 60.4843 116.72C59.9512 116.363 59.5174 115.876 59.2234 115.304L55.43 107.977C55.1815 107.497 55.1269 106.94 55.2777 106.42C55.4285 105.901 55.7731 105.46 56.2397 105.189C56.7063 104.918 57.2591 104.838 57.783 104.965C58.3069 105.093 58.7617 105.418 59.0527 105.874L62.5523 113.753L67.3144 109.871L70.0716 110.948L65.4152 116.106C65.0572 116.501 64.6213 116.816 64.1352 117.032C63.6492 117.248 63.1236 117.359 62.5921 117.36V117.36Z" fill="#CCCCCC"/>
<path d="M76.6241 106.039L72.4051 101.806C72.2576 101.658 72.0574 101.574 71.8487 101.574C71.64 101.574 71.4398 101.658 71.2922 101.806L67.4969 105.614C67.3493 105.762 67.2664 105.963 67.2664 106.173C67.2664 106.382 67.3493 106.583 67.4969 106.731L71.4388 110.687C71.5794 110.828 71.768 110.91 71.9666 110.917C72.1653 110.925 72.3593 110.856 72.5098 110.726L76.5821 107.195C76.6603 107.128 76.7244 107.045 76.7708 106.952C76.8172 106.86 76.8449 106.759 76.8525 106.655C76.86 106.552 76.8471 106.448 76.8147 106.349C76.7822 106.251 76.7307 106.16 76.6631 106.081C76.6506 106.067 76.6376 106.053 76.6241 106.039Z" fill="#3F3D56"/>
<path d="M76.0268 106.782L71.6841 102.424L68.1003 106.02L72.2744 110.209L76.0268 106.782Z" fill="#F2F2F2"/>
<path d="M71.992 108.05C72.9659 108.05 73.7555 107.258 73.7555 106.281C73.7555 105.303 72.9659 104.511 71.992 104.511C71.0181 104.511 70.2286 105.303 70.2286 106.281C70.2286 107.258 71.0181 108.05 71.992 108.05Z" fill="#F2F2F2"/>
<path opacity="0.1" d="M72.7769 107.789C73.0719 107.51 73.2626 107.139 73.3169 106.736C73.3712 106.334 73.2858 105.925 73.0752 105.578C72.8645 105.231 72.5413 104.968 72.1599 104.832C71.7785 104.696 71.3621 104.695 70.9805 104.831C71.1867 104.686 71.4213 104.587 71.6687 104.541C71.9161 104.495 72.1705 104.502 72.4148 104.563C72.6591 104.623 72.8877 104.735 73.0851 104.892C73.2826 105.049 73.4444 105.246 73.5596 105.47C73.6749 105.695 73.7409 105.941 73.7533 106.193C73.7657 106.446 73.7241 106.698 73.6314 106.932C73.5387 107.167 73.397 107.379 73.2158 107.555C73.0346 107.73 72.8181 107.864 72.5809 107.948C72.6499 107.9 72.7154 107.847 72.7769 107.789Z" fill="black"/>
<path d="M71.125 105.929C70.9147 106.127 70.9036 106.841 71.2247 107.184C71.5458 107.527 72.0775 107.369 72.2878 107.171C72.4981 106.972 72.3074 106.809 71.9862 106.466C71.6651 106.123 71.3353 105.731 71.125 105.929Z" fill="#F2F2F2"/>
<path d="M72.9152 106.834C73.2038 106.834 73.4377 106.599 73.4377 106.309C73.4377 106.02 73.2038 105.785 72.9152 105.785C72.6266 105.785 72.3927 106.02 72.3927 106.309C72.3927 106.599 72.6266 106.834 72.9152 106.834Z" fill="#2F2E41"/>
<path d="M71.976 105.831C72.2646 105.831 72.4985 105.596 72.4985 105.306C72.4985 105.017 72.2646 104.782 71.976 104.782C71.6875 104.782 71.4536 105.017 71.4536 105.306C71.4536 105.596 71.6875 105.831 71.976 105.831Z" fill="#2F2E41"/>
<path d="M72.9152 106.44C72.9874 106.44 73.0458 106.382 73.0458 106.309C73.0458 106.237 72.9874 106.178 72.9152 106.178C72.8431 106.178 72.7846 106.237 72.7846 106.309C72.7846 106.382 72.8431 106.44 72.9152 106.44Z" fill="#F2F2F2"/>
<path d="M72.9719 106.053C73.0082 106.053 73.0376 106.023 73.0376 105.987C73.0376 105.95 73.0082 105.921 72.9719 105.921C72.9356 105.921 72.9061 105.95 72.9061 105.987C72.9061 106.023 72.9356 106.053 72.9719 106.053Z" fill="#F2F2F2"/>
<path d="M72.0327 105.05C72.069 105.05 72.0984 105.02 72.0984 104.984C72.0984 104.948 72.069 104.918 72.0327 104.918C71.9964 104.918 71.9669 104.948 71.9669 104.984C71.9669 105.02 71.9964 105.05 72.0327 105.05Z" fill="#F2F2F2"/>
<path d="M71.976 105.437C72.0482 105.437 72.1067 105.379 72.1067 105.306C72.1067 105.234 72.0482 105.175 71.976 105.175C71.9039 105.175 71.8454 105.234 71.8454 105.306C71.8454 105.379 71.9039 105.437 71.976 105.437Z" fill="#F2F2F2"/>
<path d="M90.898 124.631L91.6947 122.966L85.6743 119.089L84.4984 121.547L90.898 124.631Z" fill="#FFB8B8"/>
<path d="M94.8047 120.428C94.5313 120.297 94.2346 120.22 93.9317 120.203C93.6288 120.186 93.3255 120.23 93.0393 120.331C92.753 120.431 92.4894 120.588 92.2635 120.791C92.0376 120.994 91.8537 121.24 91.7225 121.515L91.1851 122.637L90.3564 124.37L90.1537 124.794L92.3035 125.831L94.8723 120.462L94.8047 120.428Z" fill="#2F2E41"/>
<path d="M90.5935 121.284L90.2452 122.032L89.3759 123.897L89.3549 123.943C87.4978 124.038 85.5176 123.418 83.7085 122.551C82.9847 122.205 82.2791 121.821 81.5947 121.402C80.5813 120.786 79.6805 120.148 78.9644 119.608C77.8865 118.789 77.2274 118.187 77.2274 118.187C77.2274 118.187 77.0293 118.341 76.6719 118.603C76.193 118.954 75.4288 119.501 74.465 120.139C74.0972 120.385 73.7029 120.641 73.282 120.908C70.1803 122.865 65.7695 125.248 62.0177 125.751C55.4284 126.635 56.9793 117.812 56.9793 117.812L62.2234 115.079L64.4498 115.532L66.9285 116.036L67.8067 116.215C67.8067 116.215 67.9734 116.152 68.2601 116.042C69.1834 115.688 71.3528 114.851 73.2264 114.104C74.1918 113.719 75.0775 113.355 75.6736 113.095C77.7844 112.168 80.1474 114.413 80.1474 114.413L90.5935 121.284Z" fill="#2F2E41"/>
<path d="M47.3834 125.962C47.584 125.916 47.772 125.826 47.9343 125.699C48.0966 125.572 48.2292 125.411 48.3227 125.227C48.4162 125.043 48.4683 124.84 48.4755 124.634C48.4826 124.427 48.4446 124.222 48.364 124.032L50.6161 121.727L49.5538 120.012L46.4191 123.312C46.1099 123.469 45.8688 123.734 45.7415 124.058C45.6142 124.381 45.6095 124.74 45.7284 125.067C45.8473 125.393 46.0814 125.665 46.3864 125.83C46.6914 125.995 47.0462 126.042 47.3834 125.962L47.3834 125.962Z" fill="#FFB8B8"/>
<path d="M58.3148 102.862C60.2539 102.862 61.8258 101.284 61.8258 99.3385C61.8258 97.3927 60.2539 95.8153 58.3148 95.8153C56.3758 95.8153 54.8038 97.3927 54.8038 99.3385C54.8038 101.284 56.3758 102.862 58.3148 102.862Z" fill="#FFB8B8"/>
<path d="M53.7471 109.118L56.8056 117.82L56.7872 117.85C56.3618 118.556 56.2228 119.125 56.3852 119.496C56.428 119.59 56.4907 119.674 56.5689 119.742C56.6471 119.81 56.7391 119.86 56.8384 119.888L64.076 114.812L63.8226 112.777L63.8367 112.754C64.5362 111.631 64.7627 110.614 64.51 109.731C64.1821 108.586 63.14 108.066 63.1295 108.061L63.1043 108.041L59.4944 103.632L54.6689 104.492L53.7471 109.118Z" fill="#CCCCCC"/>
<path d="M49.0961 124.391L47.0472 121.86L51.9864 113.679L54.2892 106.536L54.3606 106.559L54.2892 106.536C54.415 106.146 54.6227 105.787 54.8983 105.484C55.1739 105.181 55.511 104.941 55.8868 104.78C56.2627 104.619 56.6686 104.541 57.0772 104.55C57.4858 104.56 57.8876 104.657 58.2554 104.836C58.6233 105.015 58.9488 105.27 59.2099 105.586C59.4709 105.902 59.6616 106.27 59.7689 106.665C59.8762 107.061 59.8978 107.475 59.8321 107.88C59.7664 108.285 59.6151 108.671 59.3882 109.012L55.1605 115.368L49.0961 124.391Z" fill="#CCCCCC"/>
<path d="M63.3012 98.626H57.9767L57.9221 97.8589L57.6491 98.626H56.8293L56.7211 97.1056L56.18 98.626H54.5936V98.5506C54.5948 97.4922 55.0143 96.4774 55.7602 95.729C56.506 94.9805 57.5173 94.5595 58.5721 94.5583H59.3227C60.3775 94.5595 61.3888 94.9805 62.1346 95.729C62.8805 96.4774 63.3 97.4922 63.3012 98.5506V98.626Z" fill="#2F2E41"/>
<path d="M57.9331 103.397C57.893 103.397 57.853 103.393 57.8135 103.386L53.9147 102.696V96.2297H58.2066L58.1003 96.3541C56.622 98.0842 57.7357 100.89 58.5312 102.408C58.5898 102.519 58.616 102.645 58.6066 102.77C58.5973 102.896 58.5528 103.016 58.4783 103.117C58.416 103.204 58.334 103.274 58.2392 103.323C58.1445 103.371 58.0395 103.397 57.9331 103.397V103.397Z" fill="#2F2E41"/>
<path d="M114.341 92.0896C123.793 92.0896 131.456 84.4003 131.456 74.9152C131.456 65.4301 123.793 57.7408 114.341 57.7408C104.888 57.7408 97.2259 65.4301 97.2259 74.9152C97.2259 84.4003 104.888 92.0896 114.341 92.0896Z" fill="#3F3D56"/>
<path d="M109.965 68.2396V82.8515C109.961 82.9192 109.976 82.9866 110.007 83.0467C110.038 83.1068 110.085 83.1572 110.143 83.1927C110.2 83.2283 110.266 83.2475 110.334 83.2485C110.401 83.2495 110.468 83.2321 110.526 83.1983L122.069 75.8923C122.125 75.8545 122.172 75.8033 122.204 75.7432C122.236 75.6832 122.253 75.6161 122.253 75.548C122.253 75.4799 122.236 75.4128 122.204 75.3527C122.172 75.2926 122.125 75.2414 122.069 75.2036L110.526 67.8977C110.468 67.8628 110.402 67.8445 110.335 67.8447C110.267 67.8449 110.201 67.8636 110.143 67.8988C110.085 67.934 110.038 67.9843 110.007 68.0444C109.975 68.1044 109.961 68.1719 109.965 68.2396V68.2396Z" fill="#F2F2F2"/>
</g>
<defs>
<clipPath id="clip0">
<rect width="115" height="100" fill="white" transform="translate(26.0431 26)"/>
</clipPath>
</defs>
</svg>
