<svg width="174" height="153" viewBox="0 0 174 153" fill="none" xmlns="http://www.w3.org/2000/svg">
<rect width="166.211" height="152.065" rx="20" fill="#266FDC"/>
<g clip-path="url(#clip0)">
<path d="M143.489 48.8401H57.9658V116.419H143.489V48.8401Z" fill="#F2F2F2"/>
<path d="M131.551 108.573H45.6718V40.6379H131.551V108.573ZM46.0281 108.216H131.195V40.9946H46.0281V108.216Z" fill="#3F3D56"/>
<path d="M105.965 129.488H6.8811V129.909H105.965V129.488Z" fill="#3F3D56"/>
<path d="M76.6739 94.7308L76.6238 59.426L116.56 77.0219L76.6739 94.7308Z" fill="#D0CDE1"/>
<path d="M68.5626 60.9618C68.5626 60.9618 72.325 56.7307 73.1062 58.3431C73.8874 59.9556 69.2824 62.4069 69.2824 62.4069L68.5626 60.9618Z" fill="#A0616A"/>
<path d="M70.5323 62.707C70.5323 62.707 68.8592 63.3222 68.3746 64.0693C67.89 64.8181 66.2775 65.5991 66.2775 65.5991L66.1368 65.6829L64.6152 66.5905L62.6214 67.778L56.3105 71.5403L47.9809 74.8782C47.9167 73.7139 47.8544 72.5495 47.7956 71.4476C47.7778 71.1177 47.7742 70.7897 47.7813 70.4616C47.8865 70.4295 47.9934 70.4009 48.102 70.3778C50.5662 69.8518 51.6138 69.0868 51.6138 69.0868L56.4316 66.1786C56.4316 66.1786 60.2143 63.7661 62.6143 62.6339C62.951 62.4734 63.261 62.3397 63.5283 62.2416C65.702 61.4428 69.2156 60.1519 69.2156 60.1519L69.2566 60.2321L70.1261 61.9171L70.5323 62.707Z" fill="#D0CDE1"/>
<path opacity="0.1" d="M70.5323 62.707C70.5323 62.707 68.8592 63.3222 68.3746 64.0693C67.89 64.8181 66.2775 65.5991 66.2775 65.5991L66.1368 65.6829L64.6152 66.5905L62.6214 67.778L56.3105 71.5403L47.9809 74.8782C47.9167 73.7139 47.8544 72.5495 47.7956 71.4476C47.7778 71.1177 47.7742 70.7897 47.7813 70.4616C47.8865 70.4295 47.9934 70.4009 48.102 70.3778C50.5662 69.8518 51.6138 69.0868 51.6138 69.0868L56.4316 66.1786C56.4316 66.1786 60.2143 63.7661 62.6143 62.6339C62.951 62.4734 63.261 62.3397 63.5283 62.2416C65.702 61.4428 69.2156 60.1519 69.2156 60.1519L69.2566 60.2321L70.1261 61.9171L70.5323 62.707Z" fill="black"/>
<path d="M69.2156 94.6934L69.1657 59.3885L109.101 76.9843L69.2156 94.6934Z" fill="#1472FF"/>
<path opacity="0.2" d="M106.55 75.86L69.2124 92.4374L69.2156 94.6933L109.102 76.9842L106.55 75.86Z" fill="black"/>
<path d="M58.0548 123.818V127.563H60.9056L60.5492 123.64L58.0548 123.818Z" fill="#A0616A"/>
<path d="M47.0081 123.64L46.1172 127.919L49.6807 128.098V123.64H47.0081Z" fill="#A0616A"/>
<path d="M48.4335 89.7616C48.4335 89.7616 47.5426 89.405 47.3644 92.6145C47.1862 95.8241 47.0081 106.879 47.0081 106.879C47.0081 106.879 45.2263 116.686 45.939 119.539C46.6517 122.392 46.6517 124.353 46.6517 124.353H49.8588L50.037 122.57L50.2152 117.756C50.2152 117.756 51.9969 113.298 51.4624 109.197L55.7386 96.1807L57.8766 110.089C57.8766 110.089 56.9858 113.476 57.1639 117.043C57.3421 120.609 57.3421 125.245 57.3421 125.245L60.9056 124.888L63.7564 108.127C63.7564 108.127 65.3599 91.3664 63.7564 90.4749C62.1528 89.5833 48.4335 89.7616 48.4335 89.7616Z" fill="#2F2E41"/>
<path d="M59.1239 126.315C59.1239 126.315 57.5203 124.175 56.8076 125.78C56.0949 127.384 54.4914 129.524 55.7386 130.594C56.9858 131.664 58.5894 132.02 59.1239 131.664C59.6584 131.307 65.1818 128.454 65.1818 128.454C65.1818 128.454 66.2508 125.423 64.1127 125.245C61.9747 125.066 61.262 124.531 61.262 124.531L59.1239 126.315Z" fill="#2F2E41"/>
<path d="M46.8299 126.849C46.8299 126.849 46.8299 125.066 46.1172 125.601C45.4045 126.136 44.87 128.454 44.87 128.454C44.87 128.454 40.5939 131.842 44.6918 131.842C48.7898 131.842 51.4624 132.555 51.1061 130.951C50.7497 129.346 50.2152 126.671 50.2152 126.671C50.2152 126.671 48.4335 124.353 46.8299 126.849Z" fill="#2F2E41"/>
<path d="M58.0548 58.9144C60.5149 58.9144 62.5091 56.9186 62.5091 54.4567C62.5091 51.9948 60.5149 49.999 58.0548 49.999C55.5947 49.999 53.6005 51.9948 53.6005 54.4567C53.6005 56.9186 55.5947 58.9144 58.0548 58.9144Z" fill="#A0616A"/>
<path d="M54.5804 55.9723C54.5804 55.9723 53.8677 61.1432 52.7987 61.8564C51.7296 62.5697 59.9256 62.748 59.9256 62.748C59.9256 62.748 59.3911 58.6469 59.9256 57.5771L54.5804 55.9723Z" fill="#A0616A"/>
<path d="M68.567 91.3663C68.567 91.3663 71.2396 96.3589 69.4579 96.5372C67.6761 96.7155 66.9634 91.5446 66.9634 91.5446L68.567 91.3663Z" fill="#A0616A"/>
<path d="M53.9395 57.6936C54.6154 58.0234 55.3831 58.114 56.1171 57.9507C56.8512 57.7874 57.5082 57.3798 57.9808 56.7945C58.5801 56.0106 58.9276 54.8692 59.8833 54.6255C60.5072 54.4664 61.2268 54.7667 61.7839 54.4436C62.8235 53.8407 62.0934 51.9297 63.0587 51.2137C62.6434 51.208 62.2454 51.0464 61.9437 50.7608C61.6419 50.4753 61.4583 50.0868 61.4293 49.6722C61.4046 50.006 60.9661 50.1555 60.6462 50.0579C60.3263 49.9603 60.0751 49.7141 59.7765 49.5635C59.2546 49.3004 58.6371 49.3483 58.0552 49.4025C56.5685 49.5409 54.9645 49.7298 53.8724 50.7487C52.8462 51.7062 52.505 53.2372 52.7049 54.6269C52.9047 56.0166 53.2576 56.4728 54.0046 57.6613L53.9395 57.6936Z" fill="#2F2E41"/>
<path d="M65.0036 63.7287L64.9786 63.907L64.6151 66.5905L63.1238 77.5849L63.0437 78.1716C63.0437 78.1716 63.2201 78.6013 63.441 79.286C63.8152 80.4396 64.3212 82.3172 64.3408 84.086C64.3468 84.4333 64.3301 84.7805 64.2909 85.1256C64.0236 87.399 63.9559 89.6724 63.9399 90.6673C63.9345 90.999 63.9345 91.188 63.9345 91.188L47.7208 90.6531C47.8221 90.4247 47.9118 90.1914 47.9898 89.9541C48.5756 88.2308 48.7876 86.4024 48.6116 84.5906C48.4531 83.0822 48.2054 78.9722 47.9809 74.8782C47.9168 73.7139 47.8544 72.5495 47.7956 71.4476C47.7778 71.1177 47.7742 70.7897 47.7813 70.4616C47.8249 68.5442 48.2888 66.6599 49.1405 64.9418C49.9921 63.2237 51.2105 61.7139 52.7096 60.5192C52.7096 60.5192 53.0375 60.5334 53.5542 60.5637C55.1791 60.6582 58.6784 60.9043 59.7777 61.3091C59.8283 61.3269 59.8776 61.3477 59.9256 61.3715C60.4566 61.6336 61.5666 62.1525 62.6143 62.6339C63.8526 63.2045 65.0036 63.7287 65.0036 63.7287Z" fill="#D0CDE1"/>
<path d="M62.5092 63.907H65.0036C65.0036 63.907 67.1417 66.4033 66.7853 68.8996C66.429 71.3959 66.7853 72.644 66.7853 72.644L67.8544 78.1715C67.8544 78.1715 69.1016 83.8774 69.1016 86.1954V92.2578L66.2508 92.6144C66.2508 92.6144 66.2508 90.8314 65.7163 90.1181C65.1818 89.4049 65.0036 87.6218 65.0036 87.6218L62.8655 76.2102L62.5092 63.907Z" fill="#D0CDE1"/>
<path d="M26.0785 60.7047L20.9415 62.693L22.8595 67.6558L27.9965 65.6676L26.0785 60.7047Z" fill="#1472FF"/>
<path d="M27.0682 65.2763L21.6609 67.3692L19.642 62.1451L25.0493 60.0522L27.0682 65.2763ZM21.8303 67.0033L26.6969 65.1197L24.8799 60.4181L20.0133 62.3017L21.8303 67.0033Z" fill="#3F3D56"/>
<path d="M158.957 26.7028L157.166 21.4904L152.138 23.2204L153.929 28.4328L158.957 26.7028Z" fill="#1472FF"/>
<path d="M154.355 27.5194L152.47 22.0326L157.763 20.2115L159.648 25.6984L154.355 27.5194ZM152.829 22.2159L154.525 27.154L159.289 25.5151L157.592 20.5769L152.829 22.2159Z" fill="#3F3D56"/>
<path d="M18.0976 129.757L17.8718 129.672C17.8222 129.653 12.8843 127.76 10.5711 123.467C8.25791 119.174 9.39058 114.005 9.40229 113.953L9.4556 113.718L9.68127 113.802C9.73089 113.821 14.6687 115.714 16.9819 120.007C19.2952 124.301 18.1625 129.47 18.1508 129.521L18.0976 129.757ZM10.9415 123.267C12.8972 126.897 16.7993 128.757 17.788 129.182C17.9759 128.122 18.5654 123.834 16.6115 120.207C14.6578 116.581 10.7542 114.718 9.7651 114.292C9.57702 115.353 8.98773 119.641 10.9415 123.267Z" fill="#3F3D56"/>
<path d="M12.3389 121.961C16.4959 124.464 18.0969 129.435 18.0969 129.435C18.0969 129.435 12.9581 130.349 8.80108 127.846C4.64408 125.343 3.04309 120.372 3.04309 120.372C3.04309 120.372 8.18193 119.458 12.3389 121.961Z" fill="#1472FF"/>
<path d="M173.043 9.46863H6.80737V9.82524H173.043V9.46863Z" fill="#3F3D56"/>
<path d="M10.2036 8.23136C11.0952 8.23136 11.818 7.508 11.818 6.61568C11.818 5.72336 11.0952 5 10.2036 5C9.31193 5 8.58911 5.72336 8.58911 6.61568C8.58911 7.508 9.31193 8.23136 10.2036 8.23136Z" fill="#3F3D56"/>
<path d="M15.1815 8.23136C16.0731 8.23136 16.796 7.508 16.796 6.61568C16.796 5.72336 16.0731 5 15.1815 5C14.2898 5 13.567 5.72336 13.567 6.61568C13.567 7.508 14.2898 8.23136 15.1815 8.23136Z" fill="#3F3D56"/>
<path d="M20.1595 8.23136C21.0511 8.23136 21.7739 7.508 21.7739 6.61568C21.7739 5.72336 21.0511 5 20.1595 5C19.2678 5 18.545 5.72336 18.545 6.61568C18.545 7.508 19.2678 8.23136 20.1595 8.23136Z" fill="#3F3D56"/>
<path d="M106.541 21.6636H68.5182V22.0911H106.541V21.6636Z" fill="#3F3D56"/>
<path d="M106.541 24.6564H68.5182V25.0839H106.541V24.6564Z" fill="#3F3D56"/>
<path d="M106.541 27.6493H68.5182V28.0768H106.541V27.6493Z" fill="#3F3D56"/>
</g>
<defs>
<clipPath id="clip0">
<rect width="170" height="127" fill="white" transform="translate(3.04309 5)"/>
</clipPath>
</defs>
</svg>
