<svg width="167" height="153" viewBox="0 0 167 153" fill="none" xmlns="http://www.w3.org/2000/svg">
<rect width="166.211" height="152.065" rx="20" fill="#266FDC"/>
<g clip-path="url(#clip0)">
<path d="M143.324 24.0712H18.0966V104.536H143.324V24.0712Z" fill="#E6E6E6"/>
<path d="M139.743 34.1635H21.6774V99.7754H139.743V34.1635Z" fill="white"/>
<path d="M143.27 24H18.0431V29.3376H143.27V24Z" fill="#1472FF"/>
<path d="M21.9965 27.7182C22.5411 27.7182 22.9826 27.2753 22.9826 26.7289C22.9826 26.1825 22.5411 25.7396 21.9965 25.7396C21.452 25.7396 21.0105 26.1825 21.0105 26.7289C21.0105 27.2753 21.452 27.7182 21.9965 27.7182Z" fill="white"/>
<path d="M25.7393 27.7182C26.2839 27.7182 26.7254 27.2753 26.7254 26.7289C26.7254 26.1825 26.2839 25.7396 25.7393 25.7396C25.1948 25.7396 24.7533 26.1825 24.7533 26.7289C24.7533 27.2753 25.1948 27.7182 25.7393 27.7182Z" fill="white"/>
<path d="M29.4821 27.7182C30.0267 27.7182 30.4682 27.2753 30.4682 26.7289C30.4682 26.1825 30.0267 25.7396 29.4821 25.7396C28.9376 25.7396 28.4961 26.1825 28.4961 26.7289C28.4961 27.2753 28.9376 27.7182 29.4821 27.7182Z" fill="white"/>
<path d="M62.7426 40.9712H32.4053V92.9676H62.7426V40.9712Z" fill="#E6E6E6"/>
<path d="M93.2605 40.9712H67.9794V55.2838H93.2605V40.9712Z" fill="#1472FF"/>
<path d="M93.2605 59.2697H67.9794V74.6693H93.2605V59.2697Z" fill="#E6E6E6"/>
<path d="M93.2605 78.655H67.9794V92.9676H93.2605V78.655Z" fill="#E6E6E6"/>
<path d="M129.015 40.9712H98.6779V63.6309H129.015V40.9712Z" fill="#E6E6E6"/>
<path d="M129.015 70.3079H98.6779V92.9676H129.015V70.3079Z" fill="#E6E6E6"/>
<path d="M117.328 65.2589V60.3806C117.328 58.6469 118.015 56.9842 119.237 55.7583C120.459 54.5323 122.116 53.8436 123.844 53.8436C125.572 53.8436 127.229 54.5323 128.451 55.7583C129.673 56.9842 130.359 58.6469 130.359 60.3806V65.2589C130.359 65.4917 130.267 65.7149 130.103 65.8795C129.939 66.0441 129.716 66.1367 129.484 66.137H118.203C117.971 66.1367 117.749 66.0441 117.585 65.8795C117.421 65.7149 117.329 65.4917 117.328 65.2589Z" fill="#2F2E41"/>
<path d="M133.478 128.745L131.18 129.383L127.633 120.793L131.025 119.852L133.478 128.745Z" fill="#FFB8B8"/>
<path d="M129.357 129.18L133.789 127.949L134.561 130.749L127.339 132.754C127.237 132.387 127.209 132.003 127.256 131.624C127.302 131.245 127.423 130.88 127.61 130.548C127.797 130.216 128.048 129.924 128.348 129.689C128.648 129.455 128.99 129.282 129.357 129.18V129.18Z" fill="#2F2E41"/>
<path d="M109.519 130.518H107.135L106 121.291H109.52L109.519 130.518Z" fill="#FFB8B8"/>
<path d="M105.431 129.834H110.03V132.739H102.536C102.536 132.358 102.611 131.98 102.756 131.628C102.902 131.275 103.115 130.955 103.384 130.685C103.653 130.416 103.972 130.202 104.323 130.056C104.675 129.91 105.051 129.834 105.431 129.834V129.834Z" fill="#2F2E41"/>
<path d="M106.644 78.9489C106.814 79.1794 107.033 79.3697 107.284 79.5063C107.535 79.6429 107.814 79.7226 108.099 79.7396C108.384 79.7567 108.67 79.7108 108.936 79.6051C109.202 79.4994 109.441 79.3365 109.637 79.128L115.976 81.9882L115.4 78.4111L109.469 76.2434C109.098 75.9358 108.627 75.7755 108.146 75.7928C107.665 75.8101 107.207 76.0039 106.858 76.3374C106.51 76.6708 106.296 77.1209 106.257 77.6022C106.217 78.0836 106.355 78.5627 106.644 78.9489H106.644Z" fill="#FFB8B8"/>
<path d="M119.814 100.46C117.822 100.46 115.761 100.162 114.028 99.2773C113.108 98.8167 112.293 98.1705 111.633 97.3793C110.974 96.588 110.484 95.6687 110.195 94.6789C109.292 91.8106 110.43 88.9927 111.531 86.2677C112.213 84.5791 112.858 82.9842 113.025 81.4121L113.083 80.8539C113.344 78.3469 113.569 76.1818 114.814 75.3697C115.459 74.9488 116.327 74.9247 117.467 75.2961L128.173 78.7854L127.779 99.1748L127.714 99.1967C127.658 99.2155 123.884 100.46 119.814 100.46Z" fill="#2F2E41"/>
<path d="M117.28 68.9484C117.28 68.9484 122.531 67.3874 126.615 67.9728C126.615 67.9728 124.281 80.8515 125.059 85.1445C125.837 89.4374 111.542 86.8031 114.459 82.7053L115.432 77.827C115.432 77.827 113.487 75.8757 115.237 73.5341L117.28 68.9484Z" fill="#1472FF"/>
<path d="M114.697 100.074L108.225 98.856L110.484 81.4098C110.636 80.9228 114.136 69.8691 115.726 69.271C116.88 68.8632 118.061 68.5342 119.259 68.2862L119.49 68.24L118.192 70.193L113.025 82.6141L114.697 100.074Z" fill="#2F2E41"/>
<path d="M111.324 128.38L102.962 126.982L107.655 107.757L114.638 81.4651L114.707 81.932C114.712 81.9667 115.365 85.4014 125.044 83.8774L125.129 83.864L125.153 83.9472L136.852 125.42L127.324 127.014L118.633 96.7549L111.324 128.38Z" fill="#2F2E41"/>
<path d="M122.915 103.338L122.92 103.191C122.926 103.027 123.501 86.727 123.309 80.1715C123.116 73.5938 125.239 67.8975 125.26 67.8407L125.278 67.795L125.324 67.7815C128.071 66.9944 130.453 69.3436 130.477 69.3674L130.51 69.4009L129.728 75.8747L133.077 99.4159L122.915 103.338Z" fill="#2F2E41"/>
<path d="M122.505 66.0234C125.143 66.0234 127.282 63.8777 127.282 61.2308C127.282 58.5839 125.143 56.4381 122.505 56.4381C119.867 56.4381 117.728 58.5839 117.728 61.2308C117.728 63.8777 119.867 66.0234 122.505 66.0234Z" fill="#FFB8B8"/>
<path d="M115.787 60.7709C115.788 59.3999 116.332 58.0855 117.298 57.1161C118.264 56.1467 119.574 55.6014 120.941 55.5999H121.913C123.28 55.6014 124.59 56.1467 125.556 57.1161C126.522 58.0855 127.066 59.3999 127.067 60.7709V60.8684H125.012L124.311 58.8992L124.171 60.8684H123.109L122.755 59.8749L122.685 60.8684H115.787V60.7709Z" fill="#2F2E41"/>
<path d="M122.035 66.6856C121.938 66.5545 121.881 66.3988 121.868 66.2363C121.856 66.0738 121.89 65.9112 121.966 65.7671C122.997 63.8005 124.44 60.1668 122.524 57.9258L122.387 57.7648H127.947V66.1398L122.896 67.0339C122.845 67.043 122.793 67.0476 122.741 67.0477C122.603 67.0477 122.467 67.0148 122.344 66.9519C122.222 66.889 122.116 66.7977 122.035 66.6856Z" fill="#2F2E41"/>
<path d="M99.649 32.1071C95.7583 28.8133 90.9973 26.7251 85.9453 26.0965C80.8933 25.468 75.7681 26.3262 71.1934 28.5668C66.6187 30.8073 62.7917 34.3336 60.1781 38.7166C57.5645 43.0995 56.277 48.1501 56.4723 53.2537C56.6676 58.3574 58.3373 63.2941 61.2781 67.4631C64.2189 71.6321 68.3041 74.8536 73.0365 76.7357C77.769 78.6178 82.9447 79.0793 87.9338 78.064C92.9229 77.0487 97.5103 74.6004 101.138 71.0171L133.35 98.2865C133.84 98.7022 134.474 98.9055 135.114 98.8518C135.754 98.7981 136.346 98.4916 136.76 97.9999C137.174 97.5082 137.377 96.8715 137.323 96.2298C137.27 95.5881 136.964 94.9941 136.474 94.5784L136.471 94.5754L104.259 67.306C108.001 61.9178 109.603 55.3218 108.75 48.8106C107.897 42.2994 104.651 36.3425 99.649 32.1071V32.1071ZM97.5724 64.6801C95.063 67.6639 91.728 69.8341 87.9892 70.9162C84.2504 71.9984 80.2758 71.9439 76.5678 70.7597C72.8599 69.5755 69.5852 67.3148 67.158 64.2634C64.7307 61.212 63.2598 57.5069 62.9313 53.6168C62.6028 49.7267 63.4315 45.8263 65.3125 42.4087C67.1935 38.9911 70.0424 36.2098 73.4989 34.4167C76.9554 32.6235 80.8643 31.899 84.7313 32.3346C88.5983 32.7703 92.2496 34.3467 95.2236 36.8644H95.2236C97.1983 38.536 98.8254 40.5816 100.012 42.8841C101.199 45.1867 101.922 47.7013 102.14 50.2842C102.358 52.8671 102.067 55.4679 101.283 57.9379C100.5 60.408 99.2386 62.699 97.5724 64.6801V64.6801Z" fill="#3F3D56"/>
<path opacity="0.3" d="M69.8477 67.0367C66.0733 63.8411 63.6348 59.3383 63.0163 54.4224C62.3978 49.5065 63.6446 44.537 66.5091 40.5007C66.1329 40.8808 65.7692 41.2789 65.4181 41.6949C63.7519 43.6761 62.4909 45.9671 61.7072 48.4371C60.9235 50.9072 60.6324 53.5079 60.8505 56.0909C61.0686 58.6738 61.7917 61.1884 62.9784 63.4909C64.1651 65.7935 65.7922 67.839 67.7669 69.5107C69.7416 71.1824 72.0251 72.4475 74.487 73.2338C76.949 74.02 79.5412 74.3121 82.1157 74.0933C84.6902 73.8745 87.1965 73.149 89.4915 71.9584C91.7866 70.7678 93.8254 69.1353 95.4916 67.1542C95.842 66.7376 96.1719 66.311 96.4814 65.8743C92.9975 69.3863 88.3247 71.4554 83.3907 71.6707C78.4566 71.886 73.6223 70.2319 69.8477 67.0367V67.0367Z" fill="black"/>
<path d="M124.039 87.3277C124.316 87.3958 124.606 87.402 124.886 87.3458C125.166 87.2897 125.431 87.1725 125.662 87.0026C125.892 86.8327 126.082 86.6142 126.219 86.3624C126.357 86.1107 126.437 85.8319 126.455 85.5456L133.152 83.6806L130.43 81.2993L124.487 83.4354C124.006 83.4368 123.542 83.6154 123.183 83.9372C122.824 84.259 122.595 84.7017 122.54 85.1815C122.485 85.6613 122.607 86.1448 122.883 86.5403C123.159 86.9358 123.57 87.216 124.039 87.3277V87.3277Z" fill="#FFB8B8"/>
<path d="M126.822 86.3405L126.415 82.4562L132.009 79.3596L128.362 74.93L128.957 69.9542L130.439 69.317L130.485 69.3765C131.184 70.278 137.313 78.2122 137.313 79.193C137.313 80.2004 136.14 83.1588 134.536 83.9635C132.989 84.7397 127.178 86.2484 126.931 86.3123L126.822 86.3405Z" fill="#2F2E41"/>
<path d="M155.849 133H81.7463C81.6947 133 81.6452 132.979 81.6087 132.943C81.5722 132.906 81.5518 132.857 81.5518 132.805C81.5518 132.753 81.5722 132.703 81.6087 132.667C81.6452 132.63 81.6947 132.61 81.7463 132.61H155.849C155.9 132.61 155.95 132.63 155.986 132.667C156.023 132.703 156.043 132.753 156.043 132.805C156.043 132.857 156.023 132.906 155.986 132.943C155.95 132.979 155.9 133 155.849 133Z" fill="#CCCCCC"/>
</g>
<defs>
<clipPath id="clip0">
<rect width="138" height="109" fill="white" transform="translate(18.0431 24)"/>
</clipPath>
</defs>
</svg>
